<svg width="512" height="512" xmlns="http://www.w3.org/2000/svg">
 <!-- Created with UXWing SVG Editor - https://uxwing.com/svg-icon-editor/ -->
 <g>
  <title>background</title>
  <rect fill="none" id="canvas_background" height="514" width="514" y="-1" x="-1"/>
  <g display="none" overflow="visible" y="0" x="0" height="100%" width="100%" id="canvasGrid">
   <rect fill="url(#gridpattern)" stroke-width="0" y="0" x="0" height="100%" width="100%"/>
  </g>
 </g>
 <g>
  <title>Layer 1</title>
  <path id="svg_5" d="m256.002289,-2.001952c-142.768478,0 -258.50229,115.509139 -258.50229,258.000335c0,142.490784 115.733812,257.999725 258.50229,257.999725c142.767883,0 258.501617,-115.508942 258.501617,-257.999725c0,-142.491196 -115.733734,-258.000335 -258.501617,-258.000335zm149.153259,239.680434c-25.807404,29.627213 -65.91507,39.426315 -101.113281,28.154007l-127.846146,146.733643c-13.623932,15.621429 -37.332596,17.219055 -52.984352,3.639404s-17.305939,-37.260712 -3.699409,-52.88208l128.023697,-146.893066c-15.882935,-33.106689 -11.685684,-73.917328 13.997543,-103.384979c24.313324,-27.958435 61.414948,-38.183182 95.119415,-29.715675l-48.982758,57.017784l16.025513,46.526215l48.413574,9.390701l49.106628,-57.159561c13.304199,32.200897 8.413239,70.508575 -16.060425,98.573608z" stroke-width="0.001" stroke="#FF0000" fill="#666666"/>
 </g>
</svg>