<svg width="512" height="512" xmlns="http://www.w3.org/2000/svg">
 <!-- Created with UXWing SVG Editor - https://uxwing.com/svg-icon-editor/ -->
 <g>
  <title>background</title>
  <rect fill="none" id="canvas_background" height="514" width="514" y="-1" x="-1"/>
  <g display="none" overflow="visible" y="0" x="0" height="100%" width="100%" id="canvasGrid">
   <rect fill="url(#gridpattern)" stroke-width="0" y="0" x="0" height="100%" width="100%"/>
  </g>
 </g>
 <g>
  <title>Layer 1</title>
  <path id="svg_4" d="m368.10498,61.371807c-19.138123,-8.574348 -42.189117,-1.212112 -51.517456,16.52499c-9.289734,17.736885 -1.271881,39.057129 17.866425,47.649261c60.036407,27.024696 101.473999,83.872353 101.435547,149.757896c-0.192963,91.87616 -80.5625,166.211456 -179.87796,166.371796c-99.33461,-0.178131 -179.704384,-74.513306 -179.897079,-166.371796c-0.038559,-65.921204 41.418388,-122.822388 101.512619,-149.793343c19.176788,-8.592316 27.136795,-29.912407 17.866364,-47.649506c-9.289902,-17.701412 -32.302139,-25.116982 -51.479111,-16.524803c-85.804775,38.415337 -144.973833,119.84552 -145.012382,213.967651c0.038549,131.271942 115.042366,237.659058 257.00959,237.694397c141.948059,-0.035339 256.971252,-106.422455 256.990356,-237.694397c-0.038147,-94.086624 -59.130493,-175.463043 -144.896912,-213.932148zm-112.093445,175.302799c21.277832,0 38.527313,-15.936584 38.527313,-35.652267l0,-166.389809c0,-19.6979 -17.249481,-35.634479 -38.527313,-35.634479c-21.316254,0 -38.546463,15.954426 -38.546463,35.634479l0,166.371895c0,19.715775 17.230209,35.670181 38.546463,35.670181z" stroke-width="0.001" stroke="#CE7975" fill="#FF0000"/>
 </g>
</svg>