<svg width="512" height="512" xmlns="http://www.w3.org/2000/svg">
 <!-- Created with UXWing SVG Editor - https://uxwing.com/svg-icon-editor/ -->

 <g>
  <title>background</title>
  <rect fill="none" id="canvas_background" height="514" width="514" y="-1" x="-1"/>
  <g display="none" overflow="visible" y="0" x="0" height="100%" width="100%" id="canvasGrid">
   <rect fill="url(#gridpattern)" stroke-width="0" y="0" x="0" height="100%" width="100%"/>
  </g>
 </g>
 <g>
  <title>Layer 1</title>
  <rect id="svg_9" height="214.000005" width="390.000022" y="273.999979" x="58.999985" stroke-width="0.001" stroke="#000000" fill="#ffffff"/>
  <rect id="svg_8" height="166.000003" width="425.999997" y="144.999999" x="43.000001" stroke-width="0.001" stroke="#000000" fill="#ffffff"/>
  <g id="svg_7">
   <g transform="matrix(4.60492, 0, 0, 4.05807, -246.626, -186.746)" id="svg_5">
    <path stroke="#000000" fill="#000000" id="svg_6" d="m132.404877,96.76342l-5.939995,0l0,56.09005l5.939995,0l0,-56.09005l0,0l0,0zm-71.340019,-40.040028l32.160004,0l0,-2.860008c0,-0.099998 0,-0.189995 0.009995,-0.290001c0.130005,-2.850006 2.220001,-5.25 5.01001,-5.790001c0.729996,-0.139999 1.399994,-0.120003 2.139999,-0.120003l18.52002,0c0.25,0 0.48999,-0.010002 0.72998,0.019997c1.580017,0.080002 3.02002,0.760002 4.060013,1.809998c1.029999,1.030006 1.689987,2.430008 1.789993,3.980011c0.01001,0.18 0.020004,0.370003 0.020004,0.550003l0,2.700005l32.499992,0c0.440002,0 0.75,0.01001 1.190002,0.080002c2.210007,0.360001 3.87999,2.130013 4.069992,4.370018c0.020004,0.23999 0.029999,0.470001 0.029999,0.709999l0,10.540012c0,1.470001 -1.190002,2.659996 -2.669983,2.659996l-102.95002,0c-1.479996,0.009995 -2.669998,-1.189995 -2.669998,-2.659996l0,-0.059998l0,-9.910007c0,-4.150024 2.040001,-5.730026 6.059998,-5.730026l0,0zm52.01001,40.040028l-5.949997,0l0,56.09005l5.949997,0l0,-56.09005l0,0l0,0zm-19.330002,0l-5.940002,0l0,56.09005l5.949997,0l0,-56.09005l-0.009995,0l0,0zm-28,-17.529999l87.090004,0c0.360001,0.020004 0.660004,0.040009 1.029999,0.100006c1.25,0.209991 2.399994,0.809998 3.269989,1.660004c1.01001,1 1.670013,2.339996 1.700012,3.829987c0,0.309998 -0.029999,0.630005 -0.059998,0.950012l-7.330002,78.660027c-0.100006,1.030029 -0.270004,1.950012 -0.789993,2.920013c-1.01001,1.880005 -2.880005,3.190002 -5.200012,3.190002l-72.049995,0c-0.550003,0 -1.050003,0 -1.590012,-0.079987c-0.220001,-0.030029 -0.429993,-0.080017 -0.639999,-0.140015c-0.309998,-0.089996 -0.619995,-0.209991 -0.909988,-0.350006c-0.270004,-0.130005 -0.520004,-0.269989 -0.780014,-0.449982c-1.509995,-1.040009 -2.509995,-2.779999 -2.689987,-4.720001l-7.290009,-79.260063c-0.019997,-0.25 -0.040001,-0.519989 -0.040001,-0.769989c0.050003,-1.480011 0.700005,-2.800003 1.700005,-3.790009c0.879997,-0.860001 2.059998,-1.470001 3.329994,-1.669998c0.410004,-0.059998 0.849998,-0.080002 1.250008,-0.080002l0,0zm87.010002,5.330002l-87.150002,0c-0.570007,0 -0.840004,0.099991 -0.790009,0.699997l7.270004,79.050041l0,0l0,0.01001c0.029999,0.380005 0.199997,0.690002 0.449997,0.829987l0,0l0.080002,0.029999l0.059998,0.01001l0.080002,0l72.69001,0c0.599991,0 0.669998,-0.839996 0.710007,-1.279999l7.339996,-78.710045c0.039993,-0.5 -0.26001,-0.639999 -0.740005,-0.639999l0,0z"/>
   </g>
  </g>
 </g>
</svg>