<svg width="512" height="512" xmlns="http://www.w3.org/2000/svg">
  <title>Layer 1</title>
  <rect id="svg_5" height="256" width="256" y="256" x="0" stroke-opacity="null" stroke-width="0.001" stroke="#FF0000" fill="#DDDDDD"/>
  <rect id="svg_4" height="256" width="256" y="0" x="256" stroke-opacity="null" stroke-width="0.001" stroke="#FF0000" fill="#DDDDDD"/>
  <rect id="svg_3" height="256" width="256" y="256" x="256" stroke-opacity="null" stroke-width="0.001" stroke="#FF0000" fill="#C48157"/>
  <rect id="svg_2" height="256" width="256" y="0" x="0" stroke-opacity="null" stroke-width="0.001" stroke="#FF0000" fill="#C48157"/>
  <path id="svg_1" d="m123.919373,455.348694c0.654205,-13.319946 30.333145,-6.753387 13.994232,-19.730225c5.450104,-16.007568 22.373108,-26.668274 32.601883,-40.399841c7.84137,-11.690094 25.504807,-25.777924 16.96373,-40.231873c-15.685669,-7.575256 -11.23436,-24.418396 7.951248,-20.719238c12.337158,-10.289001 13.186646,-27.4758 17.361374,-41.485046c3.789276,-16.767426 6.108093,-33.838654 5.503326,-50.969879c-22.4888,0.049652 -45.40033,-0.924683 -67.089844,-6.439789c4.201614,-15.192902 31.282974,-11.927795 42.378754,-21.261169c-10.309967,-8.384277 20.84317,-7.545868 12.691559,-20.806793c-0.559372,-15.187149 -13.791199,-19.581833 -24.391571,-30.654968c-14.161377,-17.303802 8.040222,-34.593475 20.370926,-46.291885c13.744431,-12.714432 29.464005,-26.261032 33.670883,-44.244064c-5.660095,-4.205566 -18.589569,-10.227158 -5.396393,-15.976265c18.018616,-2.762131 37.241455,-3.098648 54.900513,1.432625c11.721222,10.326752 -17.89035,10.889946 -5.149689,23.910461c15.10611,16.368774 -5.260406,24.81636 -17.285461,34.278168c-6.99939,7.99501 -27.890503,18.538483 -24.296204,26.8255c20.453491,-0.644791 32.371063,-18.549149 46.960358,-29.149048c16.001801,-18.559082 31.482361,11.431961 41.714996,21.623627c12.605896,15.445618 3.908966,36.205231 -15.078888,42.838562c-9.417206,8.769363 -15.669983,33.748596 6.863098,30.029785c13.085663,4.301056 -12.790894,4.764435 2.063477,8.740509c9.871552,3.427704 48.373016,11.261963 27.163269,21.76947c-18.001709,3.679657 -36.597046,3.527802 -54.884033,2.04187c-1.127747,25.118774 2.8414,50.138428 11.028412,74.1651c2.032104,6.835754 4.064209,13.671387 6.096313,20.506989c9.779053,-0.174896 29.969696,-2.108276 20.638702,12.451904c-19.629089,9.789001 -7.616089,30.389709 3.265137,42.108521c13.487671,15.41983 33.602539,29.855286 34.464081,50.966583c5.39444,2.907257 23.34729,10.893982 18.154297,17.146698c-85.935913,-0.398254 -171.921295,1.151154 -257.813477,-1.695557l-2.982635,-0.247437l-2.432343,-0.533386l0,0z" stroke-width="0.001" stroke="#FF0000" fill="#1CCAED"/>
 </g>
</svg>